<svg xmlns="http://www.w3.org/2000/svg" width="26.093" height="24.772" viewBox="0 0 26.093 24.772">
  <path id="Icon_material-account-balance-wallet" data-name="Icon material-account-balance-wallet" d="M28.272,24.31v1.321a2.649,2.649,0,0,1-2.641,2.641H7.141A2.641,2.641,0,0,1,4.5,25.631V7.141A2.641,2.641,0,0,1,7.141,4.5H25.631a2.649,2.649,0,0,1,2.641,2.641V8.462H16.386A2.641,2.641,0,0,0,13.745,11.1V21.669a2.641,2.641,0,0,0,2.641,2.641ZM16.386,21.669H29.593V11.1H16.386Zm5.283-3.3a1.981,1.981,0,1,1,1.981-1.981A1.978,1.978,0,0,1,21.669,18.367Z" transform="translate(-4 -4)" fill="none" stroke="#000" stroke-width="1"/>
</svg>
