<svg xmlns="http://www.w3.org/2000/svg" width="22.544" height="20.15" viewBox="0 0 22.544 20.15">
  <path id="Icon_metro-shop" data-name="Icon metro-shop" d="M10.245,10.911l.947-6.284H6.267L4.21,10.013a1.888,1.888,0,0,0-.1.6c0,1.321,1.376,2.394,3.077,2.394a2.92,2.92,0,0,0,3.054-2.095Zm4.64,2.095c1.7,0,3.077-1.072,3.077-2.394,0-.049,0-.1-.006-.145l-.609-5.84H12.423l-.61,5.835c0,.049,0,.1,0,.15,0,1.321,1.378,2.394,3.077,2.394Zm5.984,1.252V18.99H8.9V14.265a5.036,5.036,0,0,1-1.71.3,4.935,4.935,0,0,1-.683-.059v7.6A1.679,1.679,0,0,0,8.18,23.777H21.588A1.681,1.681,0,0,0,23.263,22.1V14.5a5.142,5.142,0,0,1-.683.059A4.974,4.974,0,0,1,20.87,14.257Zm4.692-4.244L23.5,4.627H18.579l.946,6.274a2.912,2.912,0,0,0,3.056,2.1c1.7,0,3.077-1.072,3.077-2.394a1.922,1.922,0,0,0-.1-.6Z" transform="translate(-3.613 -4.127)" fill="none" stroke="#000" stroke-width="1"/>
</svg>
