<svg xmlns="http://www.w3.org/2000/svg" width="29.111" height="24" viewBox="0 0 29.111 24">
  <g id="Icon_feather-users" data-name="Icon feather-users" transform="translate(-1 -4)">
    <path id="Path_4103" data-name="Path 4103" d="M21.944,30.167V27.611A5.111,5.111,0,0,0,16.833,22.5H6.611A5.111,5.111,0,0,0,1.5,27.611v2.556" transform="translate(0 -2.667)" fill="none" stroke="#000" stroke-linecap="round" stroke-linejoin="round" stroke-width="1"/>
    <path id="Path_4104" data-name="Path 4104" d="M17.722,9.611A5.111,5.111,0,1,1,12.611,4.5a5.111,5.111,0,0,1,5.111,5.111Z" transform="translate(-0.889 0)" fill="none" stroke="#000" stroke-linecap="round" stroke-linejoin="round" stroke-width="1"/>
    <path id="Path_4105" data-name="Path 4105" d="M33.833,30.2V27.64A5.111,5.111,0,0,0,30,22.7" transform="translate(-4.222 -2.696)" fill="none" stroke="#000" stroke-linecap="round" stroke-linejoin="round" stroke-width="1"/>
    <path id="Path_4106" data-name="Path 4106" d="M24,4.7a5.111,5.111,0,0,1,0,9.9" transform="translate(-3.333 -0.029)" fill="none" stroke="#000" stroke-linecap="round" stroke-linejoin="round" stroke-width="1"/>
  </g>
</svg>
